<svg xmlns="http://www.w3.org/2000/svg" version="1.1" viewBox="-5.0 -10.0 110.0 135.0">
 <path d="m69.121 43.75h-0.44922c-1.0156 0-2.0195 0.23828-2.9219 0.69922-0.52734-3.0625-3.1797-5.3047-6.2891-5.3086h-0.46094c-1.1367-0.003906-2.25 0.30078-3.2305 0.87891-0.9375-2.5-3.3281-4.1523-6-4.1484h-0.44922c-0.98047 0-1.9492 0.22656-2.832 0.66016v-9.8008c0-3.5273-2.8516-6.3867-6.3789-6.3906h-0.44922c-3.5234 0.003906-6.3789 2.8633-6.3789 6.3906v24.371l-3.1016 2.3398c-2.3203 1.7656-3.8281 4.3984-4.1797 7.2969-0.35156 2.8945 0.48438 5.8125 2.3203 8.082l9.4297 11.648v4.6914c0 1.2852 0.51172 2.5195 1.4258 3.4297 0.91016 0.90625 2.1484 1.4141 3.4336 1.4102h23.391c1.2852 0 2.5156-0.51172 3.4219-1.418s1.418-2.1367 1.418-3.4219v-4.4492c3.0078-3.7344 4.6523-8.3789 4.6602-13.172v-17.41c0-3.5234-2.8555-6.3789-6.3789-6.3789zm2.8789 23.801c-0.007812 4.168-1.5 8.1953-4.2109 11.359-0.27734 0.32031-0.43359 0.73438-0.42969 1.1602v5.0898c0 0.35547-0.14453 0.69141-0.40234 0.93359-0.25781 0.24219-0.60547 0.36719-0.95703 0.34766h-23.379c-0.34375 0-0.67188-0.13281-0.91406-0.37109-0.24219-0.24219-0.37891-0.57031-0.37891-0.91016v-5.3203c0-0.40234-0.13672-0.79297-0.38672-1.1094l-9.8203-12.152c-1.2305-1.5195-1.793-3.4727-1.5586-5.4141 0.23438-1.9414 1.25-3.7031 2.8086-4.8828l0.94141-0.71875-0.003906 5.9375c-0.035156 0.49219 0.13281 0.98047 0.47266 1.3438 0.33594 0.36328 0.80859 0.57031 1.3047 0.57031 0.49609 0 0.96875-0.20703 1.3047-0.57031s0.50781-0.85156 0.46875-1.3438v-34.77c0-1.5625 1.2695-2.832 2.832-2.832h0.44922c0.75391-0.007813 1.4844 0.28906 2.0195 0.82031 0.53906 0.53125 0.83984 1.2539 0.83984 2.0117v28.441c-0.015625 0.47656 0.16016 0.94141 0.49219 1.2852 0.33203 0.34375 0.78906 0.53906 1.2695 0.54297 0.97656-0.003906 1.7695-0.80078 1.7695-1.7812v-12.957c0-1.5664 1.2656-2.832 2.8281-2.832h0.44922c1.5625 0 2.832 1.2656 2.832 2.832v12.918c-0.011719 0.48047 0.17188 0.94141 0.50781 1.2852 0.33203 0.34375 0.79297 0.53516 1.2734 0.53516 0.46875 0 0.92188-0.1875 1.2539-0.52344 0.33203-0.33203 0.51562-0.78516 0.51562-1.2578v-9.6875c0-1.5547 1.2539-2.8203 2.8086-2.832h0.44922c1.5625 0 2.832 1.2695 2.832 2.832v4.0898c-0.007812 0.0625-0.007812 0.125 0 0.1875v5.3711c-0.011719 0.48047 0.17188 0.94141 0.50391 1.2852 0.33594 0.34375 0.79688 0.53516 1.2734 0.53516 0.47266 0 0.92578-0.1875 1.2617-0.51953 0.33203-0.33594 0.51953-0.78906 0.51953-1.2617v-4.9102-0.17969c0-1.5586 1.2617-2.8242 2.8203-2.8281h0.44922c0.76172-0.015625 1.4961 0.27344 2.0391 0.80469 0.54687 0.53516 0.85156 1.2617 0.85156 2.0234z"/>
 <path d="m53 26.898c-0.98047-0.003907-1.7695-0.80078-1.7695-1.7773 0-6.3906-5.1797-11.57-11.57-11.57s-11.57 5.1797-11.57 11.57c0.039062 0.49219-0.13281 0.98047-0.46875 1.3438-0.33984 0.36328-0.8125 0.57031-1.3047 0.57031-0.49609 0-0.96875-0.20703-1.3047-0.57031-0.33984-0.36328-0.50781-0.85156-0.47266-1.3438 0-5.4023 2.8828-10.395 7.5625-13.094 4.6758-2.7031 10.441-2.7031 15.117 0 4.6797 2.6992 7.5625 7.6914 7.5625 13.094 0 0.98047-0.79688 1.7773-1.7812 1.7773z"/>
<text x="0.0" y="117.5" font-size="5.0" font-weight="bold" font-family="Arbeit Regular, Helvetica, Arial-Unicode, Arial, Sans-serif" fill="#000000">Created by Rena Putri</text><text x="0.0" y="122.5" font-size="5.0" font-weight="bold" font-family="Arbeit Regular, Helvetica, Arial-Unicode, Arial, Sans-serif" fill="#000000">from Noun Project</text></svg>