<?xml version="1.0" encoding="UTF-8"?>
<svg id="Layer_1" xmlns="http://www.w3.org/2000/svg" version="1.1" viewBox="0 0 256 256">
  <!-- Generator: Adobe Illustrator 29.8.1, SVG Export Plug-In . SVG Version: 2.1.1 Build 2)  -->
  <defs>
    <style>
      .st0 {
        fill: #c49a6c;
      }

      .st1 {
        fill: #f1f2f2;
      }

      .st2 {
        fill: #231f20;
      }

      .st3 {
        fill: #a7a9ac;
      }
    </style>
  </defs>
  <ellipse class="st3" cx="123.35" cy="130.78" rx="58.49" ry="90.04"/>
  <path class="st0" d="M106.42,100.32c-4.24,7.06-6.96,14.71-15.55,14.71s-15.55-6.59-15.55-14.71,6.96-14.71,15.55-14.71,21.05,5.55,15.55,14.71Z"/>
  <path class="st0" d="M147.13,119.15c0,8.31-6.62,15.04-14.78,15.04s-10.59-7.91-14.78-15.04c-4.84-8.24,6.62-15.04,14.78-15.04s14.78,6.73,14.78,15.04Z"/>
  <path class="st1" d="M124.12,176.04c5.31.49,10.72.97,15.92-.17-3.31,8.79-11.4,15.6-20.63,17.36-2.4.46-4.85.59-7.29.63-10.79.18-21.6-1.47-31.84-4.86-.59-.2-.94-.15-1.66-.84-.49-.47-4.26-5.69-4.43-6.35-1.06-4.06-2.72-6,.42-8.78,2.41-2.13,12.27-2.03,15.44-1.4,3.8.75,7.61,1.41,11.44,1.95,7.52,1.06,15.08,1.76,22.64,2.46Z"/>
  <g>
    <rect class="st2" x="82.68" y="43.16" width="86" height="15.12" transform="translate(6.39 -13.61) rotate(6.36)"/>
    <rect class="st2" x="109.12" y="23.24" width="36.6" height="27.58" transform="translate(4.88 -13.88) rotate(6.36)"/>
  </g>
</svg>