<?xml version="1.0" encoding="UTF-8"?>
<svg id="Layer_1" data-name="Layer 1" xmlns="http://www.w3.org/2000/svg" viewBox="0 0 506.68 975.15">
  <defs>
    <style>
      .cls-1 {
        fill: #c2b59b;
      }

      .cls-1, .cls-2, .cls-3 {
        stroke: #231f20;
        stroke-miterlimit: 10;
        stroke-width: 5px;
      }

      .cls-2 {
        fill: none;
      }

      .cls-3 {
        fill: #fcf6ad;
      }
    </style>
  </defs>
  <path class="cls-1" d="M504.18,463.25c0,281.34-112.31,509.41-250.84,509.41S2.5,744.58,2.5,463.25c0-137.41,69.13-165.34,112.68-256.96C160.8,110.3,229.07-23.88,290.66,7.02c80.95,40.61,123.38,81.83,157.6,280.48,9.08,52.68,55.92,116.78,55.92,175.75Z"/>
  <ellipse class="cls-3" cx="348.23" cy="557.35" rx="50.52" ry="127.35"/>
  <ellipse class="cls-3" cx="152.43" cy="642.77" rx="91" ry="63.42"/>
  <path class="cls-2" d="M219.1,749.63c11.01,5.58,19.75,14.56,24.34,24.99"/>
  <path class="cls-2" d="M288.86,743.37c-9.11,8.71-16.36,18.93-21.24,29.97"/>
  <path class="cls-2" d="M99.97,556.65c6.42-8.63,18.89-13.41,30.43-11.66"/>
  <path class="cls-2" d="M331.54,399.76c8.19-2.21,17.65-.23,23.83,4.99"/>
  <path class="cls-2" d="M229.45,858.08c6.1-2.43,12.79-3.71,19.48-3.73"/>
</svg>