<?xml version="1.0" encoding="UTF-8"?>
<svg id="Layer_1" xmlns="http://www.w3.org/2000/svg" version="1.1" viewBox="0 0 256 256">
  <!-- Generator: Adobe Illustrator 29.8.1, SVG Export Plug-In . SVG Version: 2.1.1 Build 2)  -->
  <defs>
    <style>
      .st0 {
        stroke: #000;
      }

      .st0, .st1, .st2, .st3, .st4, .st5, .st6 {
        stroke-miterlimit: 10;
      }

      .st0, .st2, .st4 {
        fill: none;
      }

      .st1 {
        fill: #fff;
      }

      .st1, .st3, .st5 {
        stroke: #231f20;
      }

      .st2 {
        stroke: #fff;
      }

      .st3 {
        fill: #231f20;
      }

      .st4 {
        stroke: #fff200;
      }

      .st5 {
        fill: #fff200;
      }

      .st6 {
        fill: #a7a9ac;
        stroke: #c2b59b;
      }
    </style>
  </defs>
  <ellipse class="st3" cx="128" cy="101.6" rx="118.95" ry="78.62"/>
  <ellipse class="st5" cx="75.02" cy="85.03" rx="36.9" ry="7.76"/>
  <ellipse class="st5" cx="172.92" cy="75.18" rx="36.9" ry="7.76"/>
  <path class="st1" d="M119.05,140.11c0,12.79-5.91,23.17-13.21,23.17s-13.21-10.37-13.21-23.17,6.28-21.32,13.42-19.85c15.29,3.14,12.99,7.06,12.99,19.85Z"/>
  <ellipse class="st3" cx="128" cy="195.94" rx="23.17" ry="20.55"/>
  <path class="st4" d="M56.81,61.78c3.35-5.33,8.91-9.22,15.06-10.54,2.65-.57,5.59-.63,7.89.8"/>
  <path class="st4" d="M151.3,55.82c1.15-3.71,3.91-6.89,7.43-8.54s7.73-1.74,11.32-.25c1.09.45,2.16,1.09,2.78,2.09"/>
  <path class="st2" d="M101.85,165.1c2.9.17,5.84-.47,8.41-1.82"/>
  <path class="st2" d="M108.56,166.57c.94-.55,2.07-.77,3.15-.61"/>
  <path class="st6" d="M62.84,94.64c6.31,0,12.87,1.46,18.79-.73"/>
  <path class="st6" d="M69.15,98.21c2.03.18,4.09.07,6.09-.32"/>
  <path class="st6" d="M166.84,85.91c6.57-.23,13.14-.24,19.7-.02"/>
  <path class="st6" d="M172.91,89.97c2.03.15,4.06.17,6.09.08"/>
  <path class="st0" d="M109.23,188.65c-2.31-.53-4.42-1.71-6.66-2.49s-4.81-1.15-6.93-.09c-1.13.57-2.05,1.51-2.69,2.6"/>
  <path class="st0" d="M105.84,193.83c-2.49-.21-4.98-.42-7.48-.44-1.17-.01-2.39.03-3.43.58-1.51.8-2.3,2.48-2.93,4.07"/>
  <path class="st0" d="M111.28,202.87c-2.45-.86-5.17-.42-7.65.35-2.34.72-4.7,1.82-6.11,3.82s-1.49,5.1.39,6.66"/>
  <path class="st0" d="M145.09,187.39c3.05-2.89,7.07-4.73,11.25-5.14,2.33-.23,5.06.17,6.31,2.15"/>
  <path class="st0" d="M146.12,191.71c3.97-.41,8.21-.77,11.72,1.13,2.06,1.11,3.7,2.97,4.55,5.14"/>
  <path class="st0" d="M146.31,201.76c2.5.51,4.8,1.95,6.34,3.98s2.31,4.64,2.13,7.18"/>
  <path class="st0" d="M118.15,211.51c-.85.39-1.59.98-2.32,1.56-2.06,1.64-4.12,3.29-6.18,4.93,2.02,5.05,4.08,10.18,7.39,14.5"/>
  <path class="st0" d="M137.54,210.75c2.83,1.7,5.52,3.63,8.03,5.77.48.41.98.87,1.11,1.48.12.55-.08,1.11-.25,1.64-.76,2.34-1.12,4.79-1.48,7.23-.36,2.5-.7,5.2.48,7.44"/>
</svg>