<?xml version="1.0" encoding="UTF-8"?>
<svg id="Layer_1" xmlns="http://www.w3.org/2000/svg" version="1.1" viewBox="0 0 1024 1024">
  <!-- Generator: Adobe Illustrator 29.8.1, SVG Export Plug-In . SVG Version: 2.1.1 Build 2)  -->
  <defs>
    <style>
      .st0 {
        fill: #a7a9ac;
      }

      .st0, .st1, .st2, .st3, .st4, .st5, .st6, .st7 {
        stroke-linejoin: bevel;
        stroke-width: 3px;
      }

      .st0, .st1, .st2, .st3, .st4, .st6, .st7 {
        stroke: #231f20;
      }

      .st1 {
        fill: #fcf6ad;
      }

      .st2, .st5 {
        fill: none;
      }

      .st3 {
        fill: #9b8579;
      }

      .st4 {
        fill: #d7df23;
      }

      .st5 {
        stroke: #f1f2f2;
      }

      .st6 {
        fill: #3c2415;
      }

      .st7 {
        fill: #f1f2f2;
      }
    </style>
  </defs>
  <rect class="st3" x="99.23" y="132.14" width="799.32" height="125.21"/>
  <path class="st5" d="M142.33,203.21c9.24-14.17,20.69-26.65,33.7-36.77,4.08-3.17,9.2-6.24,13.88-4.26,3.19,1.34,5.21,4.67,7.08,7.77,5.47,9.05,13.08,18.69,23.07,18.31,12.06-.46,19.33-15.05,30.57-19.84,9.78-4.17,21.02-.18,29.82,6.04,7.96,5.63,15.12,13.69,16.96,23.78.98,5.38.38,11.04,1.73,16.33s5.76,10.43,10.75,9.43c2.5-.5,4.52-2.41,6.58-4.03,8.06-6.32,19.08-8.76,28.24-4.56,10.16,4.65,16.04,15.92,23.41,24.8,1.61,1.94,3.51,3.9,5.91,4.23,4.66.64,7.8-4.84,9.78-9.45,5.86-13.67,12.52-26.94,19.92-39.71,2.05-3.54,4.9-7.47,8.76-7.22,5.84.38,7.35,9.33,12.28,12.75,6.36,4.4,14.78-2.15,22.15-.38,3.98.96,7.24,4.28,11.26,5.02,3.82.7,7.72-1.06,11.58-.67,4.88.49,8.89,4.25,13.46,6.19,8.54,3.62,19.22-.1,24.21-8.43,1.17,4.64,3.22,9.01,5.99,12.78,4.79-10.52,19.85-13.16,27.46-4.81"/>
  <path class="st5" d="M597.94,209.96c6.76-9.82,15.13-18.35,24.6-25.07-1.37,4.49,2.37,9.37,6.67,10.26s8.66-1.14,12.31-3.74,6.97-5.82,10.96-7.76c6.42-3.13,14.29-2.48,20.19,1.67,2.72,1.91,5.07,4.53,8.1,5.8s7.18.54,8.43-2.7c.57-1.48.48-3.33,1.54-4.45,1-1.06,2.59-1.01,3.98-.77,6.01,1.03,11.55,4.18,17.5,5.57s13.09.5,16.66-4.83c-.59-1.73,1.63-3.71,3.32-3.47s2.98,1.72,4,3.19c2.66,3.82,4.66,8.27,8.05,11.34,6.03,5.45,14.96,5.11,22.48,2.63,7.52-2.48,14.52-6.77,22.22-8.44,6.09-1.32,12.49-.93,18.4,1.12"/>
  <rect class="st0" x="123.21" y="261.96" width="799.32" height="125.21"/>
  <path class="st2" d="M296.84,300.67c3.4-4.55,10.02-3.06,15.13-1.15,1.03.38,2.06.77,3.08,1.15,3.15,1.17,6.38,2.4,8.9,4.74,1.21-1.85,2.43-3.71,3.64-5.56.06,4.79.57,9.57,1.52,14.25.29,1.42.96,3.15,2.31,3.16.84,0,1.52-.71,2.08-1.39,2.68-3.24,5.04-6.78,7.05-10.54.16,4.71.68,9.4,1.56,14.02.29,1.53.68,3.16,1.78,4.17,2.52,2.31,6.26-.24,8.65-2.7,3.41-3.5,6.82-7,10.23-10.49-.61,2.89.94,6.35,3.62,6.97s5.59-2.65,4.45-5.34c3.45.7,6.46,3.5,7.62,7.07.74,2.27.79,4.81,1.9,6.89s4.05,3.34,5.53,1.55c.4,2.17.8,4.35,1.2,6.52,4.32-3.38,11.25-1.66,13.77,3.43"/>
  <path class="st2" d="M650.14,317.59c3.89-2.29,7.78-4.57,11.66-6.86.85,3.23,3.02,7.28,5.96,6.21,1.2-.44,1.99-1.66,2.69-2.81,3.41-5.61,6.81-11.21,10.22-16.82.58,2.65,1.47,5.22,2.64,7.64,3.54-3.56,7.08-7.12,10.62-10.68-.91,1.39,1.04,3.22,2.54,2.75s2.41-2.08,3.31-3.47c3.88-5.95,10.25-9.61,16.82-11.18s13.41-1.24,20.11-.53c4.1.43,8.63.89,11.97-1.72"/>
  <rect class="st4" x="105.74" y="391.77" width="799.32" height="125.21"/>
  <ellipse class="st7" cx="395.95" cy="391.77" rx="42.57" ry="46.06"/>
  <ellipse class="st7" cx="662.6" cy="391.77" rx="42.57" ry="46.06"/>
  <rect class="st1" x="65.53" y="521.59" width="799.32" height="125.21"/>
  <rect class="st6" x="105.74" y="651.41" width="799.32" height="125.21"/>
  <path class="st2" d="M477.84,485.48l-1.92.19c3.13-1.63,7.09-1.2,9.86,1.08,1.55,1.27,2.72,3.05,4.39,4.13s4.2,1.14,5.21-.65c1.12,2.49,3.13,5.36,5.6,4.64.77-.23,1.41-.78,2.07-1.25,3.76-2.68,8.98-2.71,12.76-.08"/>
  <path class="st2" d="M541.54,491.98c6.88-.37,13.45-4.81,16.77-11.34,4.29,1.71,9.34.99,13.07-1.87"/>
  <path class="st2" d="M383.2,596.65l4.34,3.16c-16.62-4.11-31.13-19.04-48.07-16.96-3.56.44-7,1.64-10.5,2.51-8.92,2.22-18.15,2.31-27.31,2.38-6.16.05-12.71-.01-17.92-3.57-2.18-1.49-4.25-3.62-6.82-3.67-2.24-.04-4.2,1.52-6.03,2.93-4.15,3.19-8.91,6.01-13.99,5.82s-10.32-4.47-10.24-9.98c-3.45,6.07-8.98,10.73-15.27,12.84,1.94-5.72-4.97-10.87-10.53-9.97s-10.16,5.11-15.43,7.23-12.78.92-14.26-4.96"/>
  <path class="st2" d="M776,619.97c4.93-.64,9.44-3.21,14.16-4.86s10.22-2.3,14.38.65c2.55,1.81,4.23,4.72,6.41,7.04s5.43,4.09,8.23,2.79"/>
  <path class="st5" d="M288.84,691.84c4.6-7.11,13.59-10.49,21.27-7.99,7.38,2.41,14.61,9.61,21.65,6.22,1.7-.82,3.22-2.23,5.07-2.41,4.01-.4,6.66,4.99,10.65,5.62,5.13.8,8.24-6.21,13.08-8.22,4.33-1.79,9.03.72,13.34,2.58,4.31,1.85,10.02,2.7,12.88-1.24.06,10.74.12,21.48.18,32.22,17.11,8.75,37.03,6.78,55.85,4.63,5.65-.65,12.14-1.87,14.94-7.21"/>
  <path class="st5" d="M543.09,713.83c6.85-5.65,15.84-11.55,23.46-7.22,2.09,1.19,3.82,3.07,6.01,4.06,5.5,2.49,11.55-1.35,16.45-5.02,1.89,5.02,8.95,4.33,12.92,1.03,3.97-3.3,6.9-8.3,11.63-10.1,6.65-2.53,13.53,2.27,20.33,4.27,13.78,4.05,29.73-5.4,33.99-20.14.24,4.27.48,8.55.72,12.82,7.75-3.92,18.19-7.31,23.81-.33,1.55,1.92,2.44,4.4,4.06,6.26,2.16,2.48,5.34,3.54,8.41,4.32,8.64,2.19,17.6,2.88,26.44,2.03.31,2.14.62,4.27.93,6.41,4.72-4.6,9.7-8.9,14.89-12.86,1.17-.89,2.61-1.8,3.94-1.23,1.07.47,1.61,1.73,2.06,2.89,1.48,3.86,2.95,7.72,4.43,11.57,3.61-3.88,7.62-7.34,11.92-10.28.5,3.3,1.58,6.5,3.14,9.39,8.49-3.1,16.12-8.94,21.65-16.57-1.52,5.55,4.47,10.93,9.75,10.04,5.28-.89,9.19-5.91,11.41-11.17,1.12,4.56,5.33,8,9.69,7.93,4.36-.07,8.46-3.65,9.46-8.25,3.75,5.16,10.49,7.52,16.32,5.71,5.83-1.81,10.38-7.69,11.02-14.22-1.64,1.94-.2,5.35,2.05,6.34s4.8.33,7.15-.34"/>
  <circle class="st3" cx="414.21" cy="397.52" r="5.74"/>
  <circle class="st3" cx="639.5" cy="397.52" r="5.74"/>
  <path class="st2" d="M446.53,592.81c6.02-5.04,12.03-10.07,18.05-15.11,5.19,4.95,15.34,2.16,17.27-4.75,3.97,1.75,8.36,2.52,12.68,2.22,2.38-.16,5.01-.83,6.25-2.86s-.35-5.47-2.68-4.95c10.07,5.36,21.58-4.32,32.96-5.04,7.52-.47,14.65,3.06,21.36,6.49,7.43,3.81,14.87,7.62,22.3,11.43,9.9,5.07,19.8,10.15,29.32,15.91-.98,1.45.77,3.18,2.29,4.05,10.25,5.86,20.5,11.73,30.75,17.59"/>
</svg>